<svg id="Слой_1" data-name="Слой 1" xmlns="http://www.w3.org/2000/svg" viewBox="0 0 93 64.34"><defs><style>.cls-1{fill:#fff;}</style></defs><title>ic_play</title><path class="cls-1" d="M46.5,62.66c-12.83,0-22.22-.45-27.83-.84A14.31,14.31,0,0,1,5.24,48.57c-.44-5.36-.67-10.82-.68-16.22h0c0-5.12.22-10.42.64-15.75a14.9,14.9,0,0,1,14-13.71C27.22,2.33,36.42,2,46.5,2s19.28.29,27.34.85a14.9,14.9,0,0,1,14,13.71c.42,5.34.64,10.64.64,15.75,0,5.28-.23,10.74-.68,16.23A14.31,14.31,0,0,1,74.32,61.82C68.72,62.21,59.33,62.66,46.5,62.66ZM7.06,32.35c0,5.33.24,10.72.67,16a11.83,11.83,0,0,0,11.1,10.95c5.58.38,14.91.83,27.67.83s22.09-.45,27.66-.83A11.83,11.83,0,0,0,85.27,48.39c.44-5.44.67-10.83.67-16,0-5.05-.22-10.28-.63-15.55A12.43,12.43,0,0,0,73.67,5.38c-8-.56-17.14-.84-27.17-.84s-19.17.28-27.17.84A12.43,12.43,0,0,0,7.69,16.8c-.42,5.26-.63,10.49-.63,15.55Z"/><path class="cls-1" d="M38.75,45.23A1.26,1.26,0,0,1,37.5,44V20.73a1.25,1.25,0,0,1,.61-1.08,1.27,1.27,0,0,1,1.24,0L60.66,31.25a1.26,1.26,0,0,1,0,2.2L39.35,45.07A1.17,1.17,0,0,1,38.75,45.23ZM40,22.83v19l17.45-9.52Z"/></svg>