<svg width="87" height="87" viewBox="0 0 87 87" fill="none" xmlns="http://www.w3.org/2000/svg">
<g clip-path="url(#clip0_218_12924)">
<path d="M1.55648 84.252H1.37365C0.614776 84.252 0 84.8669 0 85.6256C0 86.3845 0.614946 86.9992 1.37365 86.9992H1.55648C2.31535 86.9992 2.93013 86.3845 2.93013 85.6256C2.93013 84.8667 2.31518 84.252 1.55648 84.252Z" fill="white"/>
<path d="M8.86703 84.252H8.68419C7.92532 84.252 7.31055 84.8669 7.31055 85.6256C7.31055 86.3845 7.92532 86.9992 8.68419 86.9992H8.86703C9.6259 86.9992 10.2407 86.3845 10.2407 85.6256C10.2408 84.8667 9.6259 84.252 8.86703 84.252Z" fill="white"/>
<path d="M81.9663 69.5999H77.8611V66.3946C77.8611 65.1321 76.835 64.1051 75.5737 64.1051H71.9186C70.6573 64.1051 69.6312 65.1321 69.6312 66.3946V69.5999H63.2404V67.3103C63.2404 65.6997 62.0464 64.3664 60.4989 64.1422V57.2367C60.4989 56.232 59.8478 55.3781 58.9463 55.0707L12.7656 1.66914C11.8481 0.608319 10.5183 0 9.11717 0C7.2064 0 5.52486 1.08087 4.72928 2.82087C3.93184 4.56477 4.21493 6.54895 5.46895 7.99889L46.2639 55.1722C45.4933 55.5409 44.9586 56.3264 44.9586 57.2367V64.1422C43.4111 64.3668 42.217 65.6997 42.217 67.3103V69.5999H35.8263V66.3946C35.8263 65.1321 34.8001 64.1051 33.5388 64.1051H29.8834C28.6223 64.1051 27.5961 65.1321 27.5961 66.3946V69.5999H23.4908C20.7158 69.5999 18.4581 71.8576 18.4581 74.6329V76.4723C18.4581 79.2473 20.7157 81.5054 23.4908 81.5054H24.0788C24.2852 82.5199 24.7156 83.4537 25.3158 84.2527H14.3491C13.5902 84.2527 12.9754 84.8677 12.9754 85.6264C12.9754 86.3851 13.5902 87 14.3491 87H80.1428C80.9017 87 81.5165 86.3851 81.5165 85.6264C81.5165 84.8677 80.9017 84.2527 80.1428 84.2527H80.1413C80.7415 83.4536 81.1719 82.5199 81.3783 81.5054H81.9661C84.7413 81.5052 86.999 79.2475 86.999 76.4722V74.6328C86.9993 71.8576 84.7414 69.5999 81.9663 69.5999ZM72.3786 66.8526H75.114V69.5999H72.3786V66.8526ZM7.54692 6.2018C6.99689 5.56595 6.8776 4.72909 7.22764 3.96359C7.57581 3.202 8.28234 2.74746 9.11717 2.74746C9.71988 2.74746 10.2923 3.00948 10.6874 3.46657L55.2075 54.9474H49.7017L7.54692 6.2018ZM57.7518 57.6946V64.1051H47.706V57.6946H57.7518ZM45.4185 66.8526H60.0393C60.2894 66.8526 60.4933 67.0578 60.4933 67.3105V69.5999H44.9647V67.3103H44.9645C44.9645 67.0578 45.1681 66.8526 45.4185 66.8526ZM30.3438 66.8526H33.0792V69.5999H30.3438V66.8526ZM74.66 84.2525H30.7975C29.0119 84.2525 27.4894 83.104 26.9241 81.5052H78.5337C77.9682 83.1039 76.4455 84.2525 74.66 84.2525ZM84.2521 76.4722H84.2519C84.2519 77.7325 83.2266 78.7578 81.9663 78.7578H23.491C22.2309 78.7578 21.2056 77.7325 21.2056 76.4722V74.6328C21.2056 73.3725 22.2309 72.3472 23.491 72.3472H81.9664C83.2267 72.3472 84.2521 73.3725 84.2521 74.6328V76.4722Z" fill="white"/>
<path d="M85.6258 84.252H85.443C84.6841 84.252 84.0693 84.8669 84.0693 85.6256C84.0693 86.3845 84.6841 86.9992 85.443 86.9992H85.6258C86.3847 86.9992 86.9995 86.3845 86.9995 85.6256C86.9996 84.8667 86.3847 84.252 85.6258 84.252Z" fill="white"/>
</g>
<defs>
<clipPath id="clip0_218_12924">
<rect width="87" height="87" fill="white"/>
</clipPath>
</defs>
</svg>
