<svg width="87" height="87" viewBox="0 0 87 87" fill="none" xmlns="http://www.w3.org/2000/svg">
<path fill-rule="evenodd" clip-rule="evenodd" d="M55.7809 72.532V74.6358C55.7798 75.4326 55.4628 76.1965 54.8994 76.7599C54.336 77.3234 53.5721 77.6404 52.7753 77.6416H4.70577C3.90897 77.6404 3.14515 77.3233 2.58174 76.7599C2.01833 76.1964 1.70132 75.4326 1.7002 74.6358V4.70887C1.70132 3.91208 2.01833 3.14823 2.58174 2.58479C3.14515 2.02135 3.90897 1.7043 4.70577 1.70313H38.8283C39.0061 1.70293 39.1835 1.71817 39.3586 1.74867C39.5339 1.69619 39.7202 1.69201 39.8977 1.73658C40.0752 1.78114 40.2374 1.87279 40.3671 2.00185L55.4252 17.041C55.5755 17.1701 55.685 17.3401 55.7403 17.5304C55.7956 17.7207 55.7944 17.9229 55.7367 18.1125C55.7664 18.2861 55.7812 18.462 55.7809 18.6382V32.4077C59.0911 32.9554 62.2145 34.3137 64.8724 36.3614C67.5304 38.4091 69.6404 41.0827 71.0144 44.1437C72.3885 47.2047 72.9838 50.5582 72.7474 53.9051C72.511 57.252 71.4501 60.4885 69.6594 63.326L83.9935 77.6601C84.8338 78.5003 85.3058 79.64 85.3058 80.8283C85.3058 82.0166 84.8338 83.1562 83.9935 83.9965C83.1533 84.8367 82.0136 85.3088 80.8253 85.3088C79.637 85.3088 78.4974 84.8367 77.6571 83.9965L63.323 69.6624C61.0275 71.1163 58.4623 72.0923 55.7809 72.532ZM33.0345 20.665C33.0345 18.8129 31.5373 17.4053 29.7601 17.0255V15.7101C29.7601 15.4397 29.6527 15.1804 29.4615 14.9892C29.2703 14.798 29.0109 14.6906 28.7405 14.6906C28.4701 14.6906 28.2108 14.798 28.0196 14.9892C27.8284 15.1804 27.721 15.4397 27.721 15.7101V17.0255C25.9438 17.4053 24.4466 18.812 24.4466 20.665C24.4466 25.7627 30.9954 23.2236 30.9954 26.1195C30.9881 26.3425 30.9315 26.561 30.8297 26.7595C30.7279 26.9579 30.5834 27.1314 30.4066 27.2674C29.0061 28.4339 26.4857 27.6527 26.4857 26.1195C26.4857 25.8491 26.3783 25.5898 26.1871 25.3986C25.9959 25.2074 25.7365 25.1 25.4661 25.1C25.1958 25.1 24.9364 25.2074 24.7452 25.3986C24.554 25.5898 24.4466 25.8491 24.4466 26.1195C24.4466 27.9725 25.944 29.3793 27.721 29.7591V31.0745C27.721 31.3449 27.8284 31.6042 28.0196 31.7954C28.2108 31.9866 28.4701 32.094 28.7405 32.094C29.0109 32.094 29.2703 31.9866 29.4615 31.7954C29.6527 31.6042 29.7601 31.3449 29.7601 31.0745V29.7591C31.5371 29.3793 33.0345 27.9725 33.0345 26.1195C33.0345 21.0219 26.4857 23.5609 26.4857 20.665C26.493 20.4421 26.5495 20.2236 26.6513 20.0251C26.7531 19.8267 26.8975 19.6532 27.0743 19.5172C28.475 18.3507 30.9954 19.1317 30.9954 20.665C30.9954 20.9354 31.1028 21.1948 31.294 21.386C31.4852 21.5772 31.7445 21.6846 32.0149 21.6846C32.2853 21.6846 32.5447 21.5772 32.7359 21.386C32.9271 21.1948 33.0345 20.9354 33.0345 20.665ZM53.7418 32.1783V18.8343H41.6363C40.8395 18.8331 40.0756 18.5161 39.5122 17.9526C38.9488 17.3892 38.6318 16.6254 38.6307 15.8286V3.74219H4.70577C4.4497 3.74313 4.20438 3.84528 4.02332 4.02637C3.84226 4.20746 3.74015 4.4528 3.73926 4.70887V74.6358C3.74015 74.8919 3.84226 75.1372 4.02332 75.3183C4.20438 75.4994 4.4497 75.6015 4.70577 75.6025H52.7753C53.0314 75.6015 53.2767 75.4994 53.4578 75.3183C53.6388 75.1372 53.7409 74.8919 53.7418 74.6358V72.7612C50.9699 72.9354 48.1917 72.5398 45.5786 71.5988C42.9654 70.6579 40.5728 69.1915 38.5483 67.2902C36.5237 65.3888 34.9102 63.0929 33.8072 60.5439C32.7042 57.9949 32.1352 55.247 32.1352 52.4696C32.1352 49.6922 32.7042 46.9443 33.8072 44.3953C34.9102 41.8463 36.5237 39.5503 38.5483 37.649C40.5728 35.7477 42.9654 34.2813 45.5786 33.3403C48.1917 32.3994 50.9699 32.0038 53.7418 32.1779V32.1783ZM68.4661 65.016C67.4571 66.3009 66.2978 67.4601 65.0129 68.469L79.0994 82.5555C79.5574 83.0134 80.1784 83.2707 80.826 83.2706C81.4736 83.2706 82.0946 83.0134 82.5525 82.5554C83.0104 82.0975 83.2676 81.4765 83.2676 80.8289C83.2676 80.1813 83.0103 79.5603 82.5524 79.1024L68.4667 65.0167L68.4661 65.016ZM52.4669 34.1779C48.8491 34.1779 45.3124 35.2507 42.3043 37.2606C39.2962 39.2706 36.9516 42.1274 35.5671 45.4698C34.1826 48.8123 33.8203 52.4902 34.5261 56.0386C35.2319 59.5869 36.9741 62.8463 39.5323 65.4045C42.0905 67.9627 45.3498 69.7048 48.8982 70.4106C52.4465 71.1164 56.1244 70.7542 59.4669 69.3697C62.8093 67.9852 65.6662 65.6406 67.6761 62.6324C69.6861 59.6243 70.7589 56.0877 70.7588 52.4698C70.7589 50.0677 70.2857 47.6891 69.3665 45.4698C68.4472 43.2505 67.0999 41.234 65.4013 39.5354C63.7027 37.8369 61.6862 36.4895 59.4669 35.5703C57.2477 34.651 54.869 34.1779 52.4669 34.1779ZM12.652 62.9154H31.0561C31.3265 62.9154 31.5858 62.808 31.777 62.6168C31.9682 62.4256 32.0756 62.1663 32.0756 61.8959C32.0756 61.6255 31.9682 61.3662 31.777 61.175C31.5858 60.9838 31.3265 60.8764 31.0561 60.8764H12.652C12.3816 60.8764 12.1223 60.9838 11.9311 61.175C11.7399 61.3662 11.6325 61.6255 11.6325 61.8959C11.6325 62.1663 11.7399 62.4256 11.9311 62.6168C12.1223 62.808 12.3816 62.9154 12.652 62.9154ZM12.652 51.8036H29.1382C29.4086 51.8036 29.6679 51.6962 29.8591 51.505C30.0503 51.3138 30.1577 51.0544 30.1577 50.784C30.1577 50.5136 30.0503 50.2543 29.8591 50.0631C29.6679 49.8719 29.4086 49.7645 29.1382 49.7645H12.652C12.3816 49.7645 12.1223 49.8719 11.9311 50.0631C11.7399 50.2543 11.6325 50.5136 11.6325 50.784C11.6325 51.0544 11.7399 51.3138 11.9311 51.505C12.1223 51.6962 12.3816 51.8036 12.652 51.8036ZM12.652 40.6919H32.8877C33.1581 40.6919 33.4174 40.5845 33.6086 40.3933C33.7998 40.2021 33.9072 39.9427 33.9072 39.6723C33.9072 39.4019 33.7998 39.1426 33.6086 38.9514C33.4174 38.7602 33.1581 38.6528 32.8877 38.6528H12.652C12.3816 38.6528 12.1223 38.7602 11.9311 38.9514C11.7399 39.1426 11.6325 39.4019 11.6325 39.6723C11.6325 39.9427 11.7399 40.2021 11.9311 40.3933C12.1223 40.5845 12.3816 40.6919 12.652 40.6919ZM52.3019 16.7952L40.6697 5.17769V15.8286C40.6706 16.0846 40.7727 16.33 40.9538 16.5111C41.1349 16.6922 41.3802 16.7943 41.6363 16.7952H52.3019Z" fill="white"/>
</svg>
