<svg width="87" height="87" viewBox="0 0 87 87" fill="none" xmlns="http://www.w3.org/2000/svg">
<g clip-path="url(#clip0_218_12907)">
<path d="M75.3761 61.3036C74.037 60.0096 71.8917 60.0278 70.5791 61.386L65.4767 66.6666C63.9037 65.0779 63.1956 64.0517 61.4726 64.0517C58.4808 64.0517 56.9359 67.6839 59.0616 69.8309L63.0952 73.9053C64.4131 75.2359 66.6026 75.2662 67.9458 73.8757L75.4584 66.1003C76.7583 64.755 76.7212 62.6033 75.3761 61.3036ZM73.6287 64.3322C65.4695 72.777 65.999 72.3637 65.5062 72.3666C65.0328 72.3666 65.2599 72.4752 60.8698 68.0408C60.3374 67.5031 60.7257 66.5959 61.4726 66.5959C61.944 66.5959 61.893 66.6631 64.5836 69.3811C65.067 69.8695 65.892 69.8987 66.4026 69.3701L72.4086 63.154C72.7376 62.814 73.2735 62.8099 73.6081 63.1333C73.9444 63.458 73.9537 63.996 73.6287 64.3322Z" fill="white"/>
<path d="M70.5703 51.7652C71.5229 49.2394 70.3249 46.3769 67.8206 45.2997L58.0727 41.1056C58.377 37.6307 57.2144 34.0689 54.7706 31.3944L60.0226 19.1879C63.2414 18.6431 65.9805 16.5101 67.2843 13.4806C70.023 7.11428 65.3341 0 58.4144 0C50.6908 0 46.0926 8.63643 50.3853 15.0413L45.1332 27.2476C42.7879 27.2897 40.5416 27.9779 38.6367 29.1548C37.6182 29.7857 36.6584 30.5726 35.8116 31.5274L26.0634 27.3331C25.4231 27.0576 24.7472 26.918 24.0544 26.918C22.0193 26.918 20.1845 28.1259 19.3799 29.9956L17.7468 33.7911C17.2096 35.0392 17.1909 36.422 17.6937 37.6842C18.0355 38.5423 18.5911 39.2746 19.3036 39.8243C17.8091 43.217 12.5404 54.5608 5.11887 63.6895C3.98567 65.0881 3.58057 68.3017 7.41961 69.9538L8.84067 70.5652C9.4862 70.8425 10.2345 70.5448 10.5122 69.8993C10.7898 69.2539 10.4916 68.5056 9.84626 68.2279L8.42538 67.6165C7.83898 67.3644 7.1039 66.9414 6.93126 66.3603C6.78648 65.8725 7.06431 65.362 7.13686 65.2407C14.7278 55.8847 19.9753 44.6314 21.5793 40.9783C24.7941 42.3614 55.2337 55.4587 55.8364 55.718C50.4014 60.9364 49.3279 69.3275 53.4559 75.7359C51.6947 78.9145 49.7904 81.7307 47.7889 84.1159C47.4858 84.4773 47.2732 84.4736 47.1406 84.441L39.25 80.9061C38.8707 80.7362 38.8828 80.1377 38.9909 79.7532L41.8128 69.326C41.8146 69.3193 41.8163 69.3125 41.818 69.3059C42.0275 68.5317 42.4423 66.9572 41.2552 66.3228C40.0558 65.6818 38.9407 66.96 38.5207 67.4412C38.5159 67.4466 38.5113 67.4522 38.5066 67.4577C38.4972 67.4689 30.951 76.4198 30.951 76.4198C30.5437 76.8971 30.1315 76.9053 29.9696 76.8863L28.0302 76.0521C27.8556 75.5174 28.0285 75.1624 29.7769 68.7005C29.9256 68.1504 30.3199 66.6889 29.176 66.0779C28.2124 65.5632 27.2304 66.2793 26.5241 67.1149L21.8679 72.6386C21.6601 72.885 20.9172 72.8855 20.4239 72.7793L15.3288 70.5871C14.6838 70.3101 13.9351 70.6077 13.6573 71.253C13.3796 71.8984 13.6777 72.6467 14.323 72.9244C19.9114 75.3288 19.5484 75.1791 19.672 75.2144C19.7824 75.246 22.3895 75.9672 23.813 74.2785L26.4911 71.1016C26.4816 71.137 25.5745 74.4866 25.5662 74.5223C25.225 75.9882 25.5183 77.7415 26.9422 78.3542C29.2022 79.3262 29.1065 79.29 29.216 79.3235C29.9901 79.5573 31.6375 79.5527 32.9031 78.0514C32.9061 78.0477 32.9092 78.0443 32.9123 78.0407L38.6644 71.2175L36.5365 79.0806C36.2388 80.1302 36.2081 82.3319 38.2051 83.2267L46.1775 86.7981C46.2217 86.8178 46.2669 86.8352 46.3131 86.8498C47.544 87.2399 48.7994 86.8705 49.7379 85.7518C51.6417 83.483 53.4559 80.8517 55.1463 77.9145C61.1867 84.4609 71.453 84.7915 77.8798 78.5126C78.3824 78.0215 78.3918 77.2161 77.9009 76.7136C77.4096 76.211 76.6042 76.2015 76.1017 76.6927C68.3506 84.2651 55.2683 79.8446 53.6395 69.1956C53.5452 69.026 52.5645 63.4846 56.5878 58.6396C64.5476 49.1274 80.1148 54.722 80.1148 67.1708C80.1148 68.9028 79.7843 70.592 79.1325 72.1912C78.8674 72.8418 79.1799 73.5844 79.8303 73.8494C80.4808 74.1147 81.2235 73.8022 81.4886 73.1516C85.1652 64.1313 79.8872 54.0456 70.5703 51.7652ZM45.896 29.8046C46.4277 29.8318 46.9223 29.5268 47.133 29.037L53.0087 15.3813C53.1936 14.9516 53.1278 14.4549 52.8373 14.0884C48.2854 8.34536 54.4203 0.198129 61.2227 3.12588C64.8269 4.67658 66.4976 8.87041 64.9469 12.4746C63.9107 14.8824 61.6429 16.5215 59.0284 16.7521C58.5623 16.7932 58.1563 17.0868 57.9716 17.5165L52.0961 31.1721C51.8854 31.6617 52.0023 32.2307 52.3888 32.5976C54.3657 34.4733 55.566 37.1256 55.5752 40.0305C50.569 37.8764 43.8481 34.9848 38.3083 32.6011C40.4364 30.6103 43.1504 29.6567 45.896 29.8046ZM68.1457 50.9773L67.9829 51.3552C64.5014 51.0971 61.0317 51.9793 58.0917 53.918C57.167 53.52 30.2972 41.9591 21.4144 38.1369C20.1238 37.5817 19.5286 36.0878 20.0842 34.7965L21.7173 31.0012C22.2697 29.7174 23.7601 29.1115 25.0578 29.6705L66.815 47.637C68.1028 48.1911 68.6996 49.6896 68.1457 50.9773Z" fill="white"/>
</g>
<defs>
<clipPath id="clip0_218_12907">
<rect width="87" height="87" fill="white"/>
</clipPath>
</defs>
</svg>
