<svg width="87" height="87" viewBox="0 0 87 87" fill="none" xmlns="http://www.w3.org/2000/svg">
<path d="M40.7353 78.5109C37.9685 83.4741 32.9238 86.5837 27.241 86.8287C27.2214 86.8298 27.2019 86.8301 27.1825 86.8301C26.7183 86.8301 26.2845 86.592 26.0357 86.1968C25.7764 85.7851 25.7579 85.2658 25.9868 84.8366L30.7279 75.9507L26.9351 69.8615L19.7675 70.1057L15.0258 78.9925C14.7966 79.4219 14.3548 79.6954 13.8683 79.7094C13.3801 79.7233 12.9252 79.475 12.672 79.0591C9.69313 74.1645 9.51488 67.991 12.2071 62.9481C14.776 58.1318 19.6521 54.9127 25.0636 54.408L41.1781 24.1969C38.5775 19.4216 38.5307 13.5783 41.1001 8.76103C43.7934 3.71078 49.0221 0.419565 54.7454 0.171479C55.233 0.150069 55.6918 0.391698 55.951 0.803249C56.2103 1.21514 56.229 1.73442 55.9999 2.16364L51.2587 11.0492L55.0516 17.1383L62.219 16.8942L66.9609 8.00726C67.1901 7.57786 67.6319 7.30412 68.1184 7.29036C68.6129 7.27642 69.0616 7.52468 69.3146 7.94065C72.2934 12.8356 72.4716 19.009 69.7795 24.0518C67.2107 28.8679 62.3342 32.0871 56.9226 32.5921L55.5054 35.2456C55.1528 35.9059 54.3313 36.155 53.6713 35.8026C53.011 35.45 52.7615 34.6287 53.1143 33.9684L54.8849 30.6533C55.1105 30.231 55.5421 29.9588 56.0205 29.9377C60.7886 29.7263 65.1444 26.9821 67.3881 22.7757C69.2309 19.3235 69.4589 15.2349 68.1043 11.623L64.2428 18.8602C64.0149 19.2872 63.5767 19.5604 63.0929 19.5767L54.3608 19.8743C53.881 19.8972 53.42 19.6474 53.1639 19.2357L48.5441 11.8191C48.2877 11.4081 48.2703 10.8913 48.4984 10.4638L52.3605 3.22583C48.6066 4.11061 45.3361 6.57872 43.4918 10.0366C41.2485 14.243 41.399 19.389 43.8848 23.4659C44.1346 23.8754 44.1492 24.3862 43.9235 24.8095L27.102 56.3463C26.8765 56.7691 26.4445 57.0413 25.966 57.0625C21.1979 57.2737 16.8421 60.018 14.5984 64.2245C12.7555 67.6768 12.5274 71.7655 13.882 75.377L17.7437 68.1401C17.9716 67.713 18.4098 67.4398 18.8935 67.4235L27.6257 67.126C28.1067 67.1088 28.5665 67.353 28.8226 67.7645L33.4424 75.1811C33.6988 75.5922 33.7162 76.1089 33.4881 76.5364L29.6212 83.7836C33.3107 82.934 36.4772 80.5819 38.3676 77.1911C38.7321 76.5373 39.5581 76.3028 40.2114 76.6673C40.8651 77.0316 41.0998 77.857 40.7353 78.5109ZM76.757 59.0477C76.757 70.9436 67.0768 80.6217 55.1783 80.6217C43.2824 80.6217 33.6045 70.9436 33.6045 59.0477C33.6045 47.1493 43.2824 37.469 55.1783 37.469C67.0768 37.469 76.757 47.1493 76.757 59.0477ZM74.0461 59.0477C74.0461 48.6439 65.582 40.1798 55.1782 40.1798C44.7771 40.1798 36.3151 48.6439 36.3151 59.0477C36.3151 69.4488 44.7771 77.9107 55.1782 77.9107C65.582 77.9109 74.0461 69.4488 74.0461 59.0477ZM60.5113 59.0477C60.5113 61.9882 58.1188 64.3805 55.1783 64.3805C54.1989 64.3805 53.2811 64.1139 52.4915 63.6512L45.5572 70.5856C45.2926 70.8501 44.9458 70.9827 44.5988 70.9827C44.2518 70.9827 43.905 70.8503 43.6405 70.5856C43.111 70.0563 43.111 69.1982 43.6405 68.6689L50.5748 61.7345C50.1121 60.9449 49.8457 60.0271 49.8457 59.0477C49.8457 56.5753 51.5369 54.4913 53.823 53.8899V45.9301C53.823 45.1814 54.4298 44.5746 55.1785 44.5746C55.9272 44.5746 56.534 45.1814 56.534 45.9301V53.8899C58.8199 54.4913 60.5113 56.5755 60.5113 59.0477ZM57.8004 59.0477C57.8004 57.6018 56.624 56.4256 55.1782 56.4256C53.7325 56.4256 52.5563 57.6018 52.5563 59.0477C52.5563 60.4936 53.7325 61.6698 55.1782 61.6698C56.624 61.6698 57.8004 60.4936 57.8004 59.0477ZM22.7732 25.5797H37.1574C37.9061 25.5797 38.5129 24.9729 38.5129 24.2243C38.5129 23.4756 37.9061 22.8688 37.1574 22.8688H22.7732C22.0245 22.8688 21.4177 23.4756 21.4177 24.2243C21.4177 24.9729 22.0245 25.5797 22.7732 25.5797ZM16.4256 33.0262H32.3306C33.0793 33.0262 33.6861 32.4194 33.6861 31.6707C33.6861 30.9221 33.0793 30.3153 32.3306 30.3153H16.4256C15.6769 30.3153 15.0701 30.9221 15.0701 31.6707C15.0701 32.4194 15.6769 33.0262 16.4256 33.0262ZM22.7732 37.7618C22.0245 37.7618 21.4177 38.3686 21.4177 39.1172C21.4177 39.8659 22.0245 40.4727 22.7732 40.4727H29.9653C30.714 40.4727 31.3208 39.8659 31.3208 39.1172C31.3208 38.3686 30.714 37.7618 29.9653 37.7618H22.7732ZM11.5986 47.9238H25.9829C26.7315 47.9238 27.3383 47.317 27.3383 46.5683C27.3383 45.8196 26.7315 45.2128 25.9829 45.2128H11.5986C10.85 45.2128 10.2432 45.8196 10.2432 46.5683C10.2433 47.3168 10.8501 47.9238 11.5986 47.9238Z" fill="white"/>
</svg>
