<svg width="87" height="87" viewBox="0 0 87 87" fill="none" xmlns="http://www.w3.org/2000/svg">
<path d="M62.5241 0.725098H24.4732C21.6341 0.751198 21.6225 5.0519 24.4732 5.0751H62.5241C74.3097 5.0751 81.9251 13.1197 81.9251 25.5723V61.4279C81.9251 73.8805 74.3068 81.9251 62.5183 81.9251H24.4732C12.6876 81.9251 5.0751 73.8805 5.0751 61.4279V25.5723C5.0838 22.7419 0.725098 22.7216 0.725098 25.5723V61.4279C0.725098 76.2904 10.269 86.2751 24.4732 86.2751H62.5183C76.7283 86.2751 86.2751 76.2904 86.2751 61.4279V25.5723C86.2751 10.7098 76.7283 0.725098 62.5241 0.725098Z" fill="white"/>
<path d="M34.7101 59.537C35.5569 60.3896 36.9373 60.3896 37.7841 59.537L66.7841 30.537C68.6517 28.5331 65.7256 25.5867 63.7101 27.463L36.25 54.9231L23.2841 41.963C21.2744 40.0925 18.3367 43.0273 20.2101 45.037L34.7101 59.537Z" fill="white"/>
</svg>
