<svg width="87" height="87" viewBox="0 0 87 87" fill="none" xmlns="http://www.w3.org/2000/svg">
<path d="M32.2625 11.0562C31.9362 10.8206 31.5013 10.8206 31.175 11.0562L16.675 21.9312C16.4394 22.0944 16.3125 22.3662 16.3125 22.6562V26.2812C16.3125 26.6256 16.5119 26.9337 16.82 27.0969C17.1281 27.26 17.4906 27.2237 17.7625 27.0062L18.125 26.7344V40.7812C18.125 41.2887 18.5238 41.6875 19.0313 41.6875H28.0938H35.3438H44.4063C44.9138 41.6875 45.3125 41.2887 45.3125 40.7812V26.7344L45.675 27.0062C45.8381 27.1331 46.0194 27.1875 46.2188 27.1875C46.3638 27.1875 46.4906 27.1512 46.6175 27.0969C46.9256 26.9337 47.125 26.6256 47.125 26.2812V22.6562C47.125 22.3662 46.9981 22.0944 46.7625 21.9312L32.2625 11.0562ZM34.4375 39.875H29V32.625H34.4375V39.875ZM43.5 39.875H36.25V31.7187C36.25 31.2112 35.8513 30.8125 35.3438 30.8125H28.0938C27.5863 30.8125 27.1875 31.2112 27.1875 31.7187V39.875H19.9375V25.375L31.7188 16.5481L43.5 25.375V39.875ZM45.3125 24.4687L32.2625 14.6812C32.0994 14.5544 31.9181 14.5 31.7188 14.5C31.5194 14.5 31.3381 14.5544 31.175 14.6812L18.125 24.4687V23.1094L31.7188 12.9231L45.3125 23.1094V24.4687Z" fill="white"/>
<path d="M29 22.6562C29 24.1606 30.2144 25.375 31.7188 25.375C33.2231 25.375 34.4375 24.1606 34.4375 22.6562C34.4375 21.1519 33.2231 19.9375 31.7188 19.9375C30.2144 19.9375 29 21.1519 29 22.6562ZM32.625 22.6562C32.625 23.1637 32.2262 23.5625 31.7188 23.5625C31.2113 23.5625 30.8125 23.1637 30.8125 22.6562C30.8125 22.1488 31.2113 21.75 31.7188 21.75C32.2262 21.75 32.625 22.1488 32.625 22.6562Z" fill="white"/>
<path d="M75.2188 27.1875H58V11.7812C58 8.28313 55.1544 5.4375 51.6562 5.4375H11.7812C8.28313 5.4375 5.4375 8.28313 5.4375 11.7812V40.7812C5.4375 44.2794 8.28313 47.125 11.7812 47.125H12.6875V58.9062C12.6875 59.2869 12.9231 59.6313 13.2856 59.7581C13.3762 59.7944 13.485 59.8125 13.5938 59.8125C13.8475 59.8125 14.1013 59.7038 14.2825 59.5044L24.8856 47.125H29V62.5312C29 66.0294 31.8456 68.875 35.3438 68.875H62.1144L72.7175 81.2544C72.8988 81.4538 73.1525 81.5625 73.4062 81.5625C73.515 81.5625 73.6237 81.5444 73.7144 81.5081C74.0769 81.3812 74.3125 81.0369 74.3125 80.6562V68.875H75.2188C78.7169 68.875 81.5625 66.0294 81.5625 62.5312V33.5312C81.5625 30.0331 78.7169 27.1875 75.2188 27.1875ZM24.4688 45.3125C24.1969 45.3125 23.9613 45.4212 23.78 45.6206L14.5 56.4594V46.2188C14.5 45.7113 14.1012 45.3125 13.5938 45.3125H11.7812C9.28 45.3125 7.25 43.2825 7.25 40.7812V11.7812C7.25 9.28 9.28 7.25 11.7812 7.25H51.6562C54.1575 7.25 56.1875 9.28 56.1875 11.7812V40.7812C56.1875 43.2825 54.1575 45.3125 51.6562 45.3125H24.4688ZM79.75 62.5312C79.75 65.0325 77.72 67.0625 75.2188 67.0625H73.4062C72.8988 67.0625 72.5 67.4613 72.5 67.9688V78.2094L63.22 67.3888C63.0388 67.1712 62.8031 67.0625 62.5312 67.0625H35.3438C32.8425 67.0625 30.8125 65.0325 30.8125 62.5312V47.125H51.6562C55.1544 47.125 58 44.2794 58 40.7812V29H75.2188C77.72 29 79.75 31.03 79.75 33.5312V62.5312Z" fill="white"/>
<path d="M75.2188 58H35.3438C34.8363 58 34.4375 58.3988 34.4375 58.9063C34.4375 59.4138 34.8363 59.8125 35.3438 59.8125H75.2188C75.7263 59.8125 76.125 59.4138 76.125 58.9063C76.125 58.3988 75.7263 58 75.2188 58Z" fill="white"/>
<path d="M75.2188 54.375H35.3438C34.8363 54.375 34.4375 54.7738 34.4375 55.2813C34.4375 55.7888 34.8363 56.1875 35.3438 56.1875H75.2188C75.7263 56.1875 76.125 55.7888 76.125 55.2813C76.125 54.7738 75.7263 54.375 75.2188 54.375Z" fill="white"/>
<path d="M75.2188 50.75H35.3438C34.8363 50.75 34.4375 51.1488 34.4375 51.6563C34.4375 52.1638 34.8363 52.5625 35.3438 52.5625H75.2188C75.7263 52.5625 76.125 52.1638 76.125 51.6563C76.125 51.1488 75.7263 50.75 75.2188 50.75Z" fill="white"/>
<path d="M75.2188 47.125H60.7188C60.2113 47.125 59.8125 47.5238 59.8125 48.0313C59.8125 48.5388 60.2113 48.9375 60.7188 48.9375H75.2188C75.7262 48.9375 76.125 48.5388 76.125 48.0313C76.125 47.5238 75.7262 47.125 75.2188 47.125Z" fill="white"/>
<path d="M75.2188 43.5H60.7188C60.2113 43.5 59.8125 43.8988 59.8125 44.4063C59.8125 44.9138 60.2113 45.3125 60.7188 45.3125H75.2188C75.7262 45.3125 76.125 44.9138 76.125 44.4063C76.125 43.8988 75.7262 43.5 75.2188 43.5Z" fill="white"/>
<path d="M75.2188 39.875H60.7188C60.2113 39.875 59.8125 40.2738 59.8125 40.7813C59.8125 41.2888 60.2113 41.6875 60.7188 41.6875H75.2188C75.7262 41.6875 76.125 41.2888 76.125 40.7813C76.125 40.2738 75.7262 39.875 75.2188 39.875Z" fill="white"/>
<path d="M75.2188 36.25H60.7188C60.2113 36.25 59.8125 36.6488 59.8125 37.1563C59.8125 37.6638 60.2113 38.0625 60.7188 38.0625H75.2188C75.7262 38.0625 76.125 37.6638 76.125 37.1563C76.125 36.6488 75.7262 36.25 75.2188 36.25Z" fill="white"/>
</svg>
