<svg width="87" height="87" viewBox="0 0 87 87" fill="none" xmlns="http://www.w3.org/2000/svg">
<path fill-rule="evenodd" clip-rule="evenodd" d="M55.7809 72.5313V74.6351C55.7798 75.4319 55.4628 76.1958 54.8994 76.7592C54.336 77.3227 53.5721 77.6397 52.7753 77.6408H4.70577C3.90897 77.6396 3.14515 77.3226 2.58174 76.7592C2.01833 76.1957 1.70132 75.4319 1.7002 74.6351V4.70814C1.70132 3.91134 2.01833 3.1475 2.58174 2.58406C3.14515 2.02062 3.90897 1.70356 4.70577 1.70239H38.8283C39.0061 1.7022 39.1835 1.71744 39.3586 1.74793C39.5339 1.69546 39.7202 1.69128 39.8977 1.73584C40.0752 1.7804 40.2374 1.87205 40.3671 2.00112L55.4252 17.0402C55.5755 17.1693 55.685 17.3394 55.7403 17.5297C55.7956 17.7199 55.7944 17.9222 55.7367 18.1117C55.7664 18.2854 55.7812 18.4613 55.7809 18.6375V32.4069C59.0911 32.9547 62.2145 34.313 64.8724 36.3607C67.5304 38.4084 69.6404 41.0819 71.0144 44.143C72.3885 47.204 72.9838 50.5574 72.7474 53.9044C72.511 57.2513 71.4501 60.4878 69.6594 63.3252L83.9935 77.6593C84.8338 78.4996 85.3058 79.6392 85.3058 80.8275C85.3058 82.0158 84.8338 83.1555 83.9935 83.9957C83.1533 84.836 82.0136 85.308 80.8253 85.308C79.637 85.308 78.4974 84.836 77.6571 83.9957L63.323 69.6616C61.0275 71.1156 58.4623 72.0916 55.7809 72.5313ZM33.0345 20.6643C33.0345 18.8122 31.5373 17.4045 29.7601 17.0248V15.7094C29.7601 15.439 29.6527 15.1797 29.4615 14.9885C29.2703 14.7973 29.0109 14.6899 28.7405 14.6899C28.4701 14.6899 28.2108 14.7973 28.0196 14.9885C27.8284 15.1797 27.721 15.439 27.721 15.7094V17.0248C25.9438 17.4045 24.4466 18.8113 24.4466 20.6643C24.4466 25.762 30.9954 23.2228 30.9954 26.1188C30.9881 26.3417 30.9315 26.5603 30.8297 26.7587C30.7279 26.9572 30.5834 27.1306 30.4066 27.2666C29.0061 28.4331 26.4857 27.652 26.4857 26.1188C26.4857 25.8484 26.3783 25.5891 26.1871 25.3979C25.9959 25.2067 25.7365 25.0993 25.4661 25.0993C25.1958 25.0993 24.9364 25.2067 24.7452 25.3979C24.554 25.5891 24.4466 25.8484 24.4466 26.1188C24.4466 27.9718 25.944 29.3786 27.721 29.7584V31.0737C27.721 31.3441 27.8284 31.6035 28.0196 31.7947C28.2108 31.9858 28.4701 32.0933 28.7405 32.0933C29.0109 32.0933 29.2703 31.9858 29.4615 31.7947C29.6527 31.6035 29.7601 31.3441 29.7601 31.0737V29.7584C31.5371 29.3786 33.0345 27.9718 33.0345 26.1188C33.0345 21.0212 26.4857 23.5601 26.4857 20.6643C26.493 20.4414 26.5495 20.2229 26.6513 20.0244C26.7531 19.826 26.8975 19.6525 27.0743 19.5165C28.475 18.35 30.9954 19.1309 30.9954 20.6643C30.9954 20.9347 31.1028 21.194 31.294 21.3852C31.4852 21.5764 31.7445 21.6838 32.0149 21.6838C32.2853 21.6838 32.5447 21.5764 32.7359 21.3852C32.9271 21.194 33.0345 20.9347 33.0345 20.6643ZM53.7418 32.1775V18.8336H41.6363C40.8395 18.8324 40.0756 18.5154 39.5122 17.9519C38.9488 17.3885 38.6318 16.6246 38.6307 15.8278V3.74146H4.70577C4.4497 3.7424 4.20438 3.84455 4.02332 4.02564C3.84226 4.20673 3.74015 4.45207 3.73926 4.70814V74.6351C3.74015 74.8912 3.84226 75.1365 4.02332 75.3176C4.20438 75.4987 4.4497 75.6008 4.70577 75.6018H52.7753C53.0314 75.6008 53.2767 75.4987 53.4578 75.3176C53.6388 75.1365 53.7409 74.8912 53.7418 74.6351V72.7605C50.9699 72.9347 48.1917 72.5391 45.5786 71.5981C42.9654 70.6571 40.5728 69.1908 38.5483 67.2894C36.5237 65.3881 34.9102 63.0921 33.8072 60.5431C32.7042 57.9942 32.1352 55.2462 32.1352 52.4688C32.1352 49.6915 32.7042 46.9435 33.8072 44.3946C34.9102 41.8456 36.5237 39.5496 38.5483 37.6483C40.5728 35.7469 42.9654 34.2806 45.5786 33.3396C48.1917 32.3986 50.9699 32.003 53.7418 32.1772V32.1775ZM68.4661 65.0153C67.4571 66.3001 66.2978 67.4594 65.0129 68.4683L79.0994 82.5548C79.5574 83.0127 80.1784 83.2699 80.826 83.2699C81.4736 83.2699 82.0946 83.0126 82.5525 82.5547C83.0104 82.0968 83.2676 81.4757 83.2676 80.8282C83.2676 80.1806 83.0103 79.5595 82.5524 79.1016L68.4667 65.016L68.4661 65.0153ZM52.4669 34.1772C48.8491 34.1772 45.3124 35.2499 42.3043 37.2599C39.2962 39.2698 36.9516 42.1267 35.5671 45.4691C34.1826 48.8116 33.8203 52.4895 34.5261 56.0378C35.2319 59.5862 36.9741 62.8455 39.5323 65.4037C42.0905 67.9619 45.3498 69.7041 48.8982 70.4099C52.4465 71.1157 56.1244 70.7534 59.4669 69.3689C62.8093 67.9844 65.6662 65.6399 67.6761 62.6317C69.6861 59.6236 70.7589 56.087 70.7588 52.4691C70.7589 50.067 70.2857 47.6884 69.3665 45.4691C68.4472 43.2498 67.0999 41.2333 65.4013 39.5347C63.7027 37.8361 61.6862 36.4888 59.4669 35.5695C57.2477 34.6503 54.869 34.1772 52.4669 34.1772ZM12.652 62.9147H31.0561C31.3265 62.9147 31.5858 62.8073 31.777 62.6161C31.9682 62.4249 32.0756 62.1656 32.0756 61.8952C32.0756 61.6248 31.9682 61.3655 31.777 61.1743C31.5858 60.9831 31.3265 60.8756 31.0561 60.8756H12.652C12.3816 60.8756 12.1223 60.9831 11.9311 61.1743C11.7399 61.3655 11.6325 61.6248 11.6325 61.8952C11.6325 62.1656 11.7399 62.4249 11.9311 62.6161C12.1223 62.8073 12.3816 62.9147 12.652 62.9147ZM12.652 51.8028H29.1382C29.4086 51.8028 29.6679 51.6954 29.8591 51.5042C30.0503 51.313 30.1577 51.0537 30.1577 50.7833C30.1577 50.5129 30.0503 50.2536 29.8591 50.0624C29.6679 49.8712 29.4086 49.7638 29.1382 49.7638H12.652C12.3816 49.7638 12.1223 49.8712 11.9311 50.0624C11.7399 50.2536 11.6325 50.5129 11.6325 50.7833C11.6325 51.0537 11.7399 51.313 11.9311 51.5042C12.1223 51.6954 12.3816 51.8028 12.652 51.8028ZM12.652 40.6911H32.8877C33.1581 40.6911 33.4174 40.5837 33.6086 40.3925C33.7998 40.2013 33.9072 39.942 33.9072 39.6716C33.9072 39.4012 33.7998 39.1419 33.6086 38.9507C33.4174 38.7595 33.1581 38.6521 32.8877 38.6521H12.652C12.3816 38.6521 12.1223 38.7595 11.9311 38.9507C11.7399 39.1419 11.6325 39.4012 11.6325 39.6716C11.6325 39.942 11.7399 40.2013 11.9311 40.3925C12.1223 40.5837 12.3816 40.6911 12.652 40.6911ZM52.3019 16.7945L40.6697 5.17696V15.8278C40.6706 16.0839 40.7727 16.3292 40.9538 16.5103C41.1349 16.6914 41.3802 16.7936 41.6363 16.7945H52.3019Z" fill="white"/>
</svg>
