<svg width="291" height="60" viewBox="0 0 291 60" fill="none" xmlns="http://www.w3.org/2000/svg">
<path d="M15.6823 50.6425H7.40421V57.8552H15.6823V55.3213H11.3496V53.382H18.2588V57.3055C18.2588 58.3466 18.0648 59.0574 17.6757 59.4332C17.2889 59.8109 16.5403 60 15.4336 60H7.5757C6.46895 60 5.72099 59.8109 5.33363 59.4332C4.94505 59.0574 4.75228 58.3466 4.75228 57.3055V51.3005C4.75228 50.2667 4.94505 49.5577 5.33363 49.1764C5.72099 48.7969 6.46895 48.606 7.5757 48.606H15.4336C16.5257 48.606 17.27 48.7933 17.6665 49.1673C18.0612 49.5394 18.2588 50.2163 18.2588 51.1923V51.4519L15.6823 51.9159V50.6425Z" fill="#F7931D"/>
<path d="M36.5531 55.4501H41.5438L39.0853 50.8164L36.5531 55.4501ZM31.4536 59.9999L37.8995 48.6059H40.4541L46.9876 59.9999H44.0127L42.6439 57.5092H35.4203L34.094 59.9999H31.4536Z" fill="#F7931D"/>
<path d="M69.3768 50.5789H63.4156V53.7484H69.3768C69.8365 53.7484 70.1509 53.6815 70.3212 53.5483C70.4896 53.4157 70.5735 53.1798 70.5735 52.8417V51.4728C70.5735 51.142 70.4896 50.9116 70.3212 50.7772C70.1509 50.6446 69.8365 50.5789 69.3768 50.5789ZM60.8068 59.9996V48.6062H70.5529C71.4583 48.6062 72.1145 48.7802 72.5201 49.128C72.9263 49.4777 73.1282 50.0383 73.1282 50.8167V53.4887C73.1282 54.2573 72.9263 54.818 72.5201 55.1695C72.1145 55.5234 71.4583 55.6991 70.5529 55.6991H69.0642L74.3249 59.9996H70.5194L65.9289 55.6991H63.4156V59.9996H60.8068Z" fill="#F7931D"/>
<path d="M90.7992 55.4501H95.7899L93.3314 50.8164L90.7992 55.4501ZM85.6997 59.9999L92.1456 48.6059H94.7002L101.234 59.9999H98.2588L96.89 57.5092H89.6657L88.3401 59.9999H85.6997Z" fill="#F7931D"/>
<path d="M125.358 50.6425H117.079V57.8552H125.358V55.3213H121.025V53.382H127.935V57.3055C127.935 58.3466 127.741 59.0574 127.352 59.4332C126.964 59.8109 126.216 60 125.109 60H117.252C116.145 60 115.397 59.8109 115.01 59.4332C114.621 59.0574 114.428 58.3466 114.428 57.3055V51.3005C114.428 50.2667 114.621 49.5577 115.01 49.1764C115.397 48.7969 116.145 48.606 117.252 48.606H125.109C126.202 48.606 126.946 48.7933 127.342 49.1673C127.736 49.5394 127.935 50.2163 127.935 51.1923V51.4519L125.358 51.9159V50.6425Z" fill="#F7931D"/>
<path d="M143.695 59.9998V48.6059H155.36V50.5451H146.349V53.0906H151.609V55.0311H146.349V57.8551H155.467V59.9998H143.695Z" fill="#F7931D"/>
<path d="M191.873 57.855H195.301C197.126 57.855 198.42 57.571 199.181 57.0024C199.942 56.4356 200.323 55.4967 200.323 54.1899C200.323 53.0248 200.008 52.1443 199.375 51.5441C198.744 50.9433 197.808 50.6423 196.573 50.6423H191.873V57.855ZM189.219 59.9997V48.6063H196.55C198.643 48.6063 200.25 49.094 201.375 50.0719C202.499 51.0485 203.061 52.4356 203.061 54.2331C203.061 55.2967 202.843 56.2544 202.405 57.1052C201.965 57.9577 201.349 58.6272 200.55 59.1155C200.055 59.4257 199.437 59.6501 198.7 59.7905C197.964 59.9304 197.021 59.9997 195.871 59.9997H189.219Z" fill="#F7931D"/>
<path d="M220.493 57.855H229.235V50.6423H220.493V57.855ZM217.841 51.3009C217.841 50.2665 218.034 49.5581 218.423 49.1762C218.81 48.7967 219.558 48.6064 220.665 48.6064H229.052C230.159 48.6064 230.905 48.7967 231.294 49.1762C231.681 49.5581 231.876 50.2665 231.876 51.3009V57.3053C231.876 58.3469 231.681 59.0572 231.294 59.433C230.905 59.8107 230.159 59.9998 229.052 59.9998H220.665C219.558 59.9998 218.81 59.8107 218.423 59.433C218.034 59.0572 217.841 58.3469 217.841 57.3053V51.3009Z" fill="#F7931D"/>
<path d="M250.031 57.855H258.773V50.6423H250.031V57.855ZM247.38 51.3009C247.38 50.2665 247.572 49.5581 247.961 49.1762C248.349 48.7967 249.097 48.6064 250.203 48.6064H258.59C259.697 48.6064 260.443 48.7967 260.832 49.1762C261.22 49.5581 261.414 50.2665 261.414 51.3009V57.3053C261.414 58.3469 261.22 59.0572 260.832 59.433C260.443 59.8107 259.697 59.9998 258.59 59.9998H250.203C249.097 59.9998 248.349 59.8107 247.961 59.433C247.572 59.0572 247.38 58.3469 247.38 57.3053V51.3009Z" fill="#F7931D"/>
<path d="M285.722 50.5789H279.76V53.7484H285.722C286.181 53.7484 286.496 53.6815 286.666 53.5483C286.834 53.4157 286.918 53.1798 286.918 52.8417V51.4728C286.918 51.142 286.834 50.9116 286.666 50.7772C286.496 50.6446 286.181 50.5789 285.722 50.5789ZM277.152 59.9996V48.6062H286.898C287.803 48.6062 288.459 48.7802 288.865 49.128C289.271 49.4777 289.473 50.0383 289.473 50.8167V53.4887C289.473 54.2573 289.271 54.818 288.865 55.1695C288.459 55.5234 287.803 55.6991 286.898 55.6991H285.409L290.67 59.9996H286.864L282.273 55.6991H279.76V59.9996H277.152Z" fill="#F7931D"/>
<path d="M277.68 14.8768H218.933V10.8859H277.68V14.8768Z" fill="#F7931D"/>
<path d="M277.68 20.2141H218.933V16.2231H277.68V20.2141Z" fill="#F7931D"/>
<path d="M277.68 25.5521H218.933V21.5611H277.68V25.5521Z" fill="#F7931D"/>
<path d="M277.68 30.8893H218.933V26.8984H277.68V30.8893Z" fill="#F7931D"/>
<path d="M277.68 36.2267H218.933V32.2357H277.68V36.2267Z" fill="#F7931D"/>
<path d="M31.6669 14.228H8.90931V6.38956H32.8059V9.80953L40.3007 9.95243V8.01258C40.3007 5.02012 39.6501 2.93616 38.3493 1.7613C37.0486 0.587059 34.6831 0.000240326 31.2534 0.000240326H10.5323C6.9871 0.000240326 4.59179 0.610168 3.35005 1.83063C2.10648 3.05048 1.48561 5.3187 1.48561 8.63407V12.6743C1.48561 15.9897 2.10648 18.2573 3.35005 19.4777C4.59179 20.6988 6.9871 21.3075 10.5323 21.3075H33.2911V29.6306H7.49365V25.8932L1.52588e-05 25.7314V27.8695C1.52588e-05 31.1843 0.626361 33.4525 1.88087 34.673C3.136 35.8928 5.54712 36.5027 9.11667 36.5027H31.6669C35.2358 36.5027 37.647 35.8928 38.9021 34.673C40.1554 33.4525 40.7842 31.1843 40.7842 27.8695V22.8618C40.7842 19.5464 40.1554 17.2801 38.9021 16.0584C37.647 14.8379 35.2358 14.228 31.6669 14.228Z" fill="#E4DDCA"/>
<path d="M89.3762 0.000270844H47.3139V6.52763H64.0622V36.5028H72.558V6.52763H89.3762V0.000270844Z" fill="#E4DDCA"/>
<path d="M101.501 21.93L109.615 7.07951L117.489 21.93H101.501ZM105.817 -3.8147e-06L85.165 36.5025H93.6268L97.875 28.5248H121.013L125.398 36.5025H134.93L114.002 -3.8147e-06H105.817Z" fill="#E4DDCA"/>
<path d="M152.2 16.4738V6.32033H171.297C172.769 6.32033 173.778 6.53317 174.318 6.96005C174.86 7.38512 175.129 8.127 175.129 9.18631V13.5725C175.129 14.655 174.86 15.4084 174.318 15.8347C173.778 16.2598 172.769 16.4738 171.297 16.4738H152.2ZM175.06 22.7239C177.963 22.7239 180.062 22.1602 181.363 21.0315C182.664 19.9041 183.315 18.1084 183.315 15.6437V7.07985C183.315 4.59393 182.664 2.79274 181.363 1.67566C180.062 0.559181 177.963 0.000331879 175.06 0.000331879H143.842V36.5028H152.2V22.7239H160.246L174.957 36.5028H187.148L170.296 22.7239H175.06Z" fill="#E4DDCA"/>
<path d="M285.921 0.000286102H282.677H188.221V6.52765H204.97V36.5028H213.466V6.52765H282.677V36.6226H289.624V0.000286102H285.921Z" fill="#E4DDCA"/>
</svg>
